<?xml version="1.0" encoding="utf-8"?>
<!-- Generator: Adobe Illustrator 26.0.1, SVG Export Plug-In . SVG Version: 6.00 Build 0)  -->
<svg version="1.1" xmlns="http://www.w3.org/2000/svg" xmlns:xlink="http://www.w3.org/1999/xlink" x="0px" y="0px"
	 viewBox="0 0 256 256" style="enable-background:new 0 0 256 256;" xml:space="preserve">
<style type="text/css">
	.st0{display:none;}
	.st1{display:inline;}
	.st2{fill:#FFFFFF;}
</style>
<g id="Слой_1" class="st0">
	<g class="st1">
		<path class="st0" d="M255,67.6c0,63,0,125.9,0,188.9c-85,0-170,0-255,0C0,177,0,97.4,0,17.9c9.5,0,19.1,0,28.7,0
			c0.3,0.9,0.5,1.7,0.7,2.5c4.3,16.4,8.6,32.8,12.9,49.2c2.9,10.8,5.9,21.5,8.8,32.3c8.8,31.9,17.5,63.8,26.3,95.7
			c0.4,1.3,0.6,2.3-0.9,3.3c-9.4,6.1-13.6,14.8-12.8,26c1.1,14.1,14.6,25.7,28.8,24.5c15.5-1.3,27.1-14.4,25.8-29.1
			c-0.4-4.9-2.1-9.4-4.7-13.8c23.2,0,46.1,0,69.3,0c-0.5,0.9-0.9,1.6-1.2,2.3c-5.4,9.9-4.3,22.1,2.8,30.7c7.2,8.7,19,12,29.7,8.5
			c10.5-3.4,18-13.1,18.8-24.3c1.1-15.7-11.7-29.2-27.8-29.3c-37.4,0-74.7,0-112.1,0c-0.8,0-1.5,0.1-2.2-0.1
			c-0.5-0.1-1.2-0.4-1.3-0.8c-1.3-4.6-2.6-9.3-3.9-14c2.4,0.1,4.5,0.4,6.5,0.4c37.4,0,74.9,0,112.3,0c12.4,0,21.1-6.7,24.3-18.7
			c7.1-26.2,14.1-52.4,21.1-78.6C251.6,79,253.4,73.3,255,67.6z"/>
		<path class="st0" d="M0,6c0-1.5,0-3,0-4.5c85,0,170,0,255,0c0,20.9,0,41.8,0,62.6c-1.6-3.5-4.4-4.4-8.1-4.4
			c-63.7,0.1-127.5,0-191.2,0c-1.1,0-2.1,0-3.2,0c-0.3-1-0.5-1.8-0.7-2.6c-4.1-14.9-8.1-29.9-12.2-44.8c-1.4-5.2-2.9-6.3-8.2-6.3
			C20.9,6,10.5,6,0,6z"/>
		<path d="M0,6C10.5,6,20.9,6,31.4,6.1c5.4,0,6.8,1.1,8.2,6.3c4.1,14.9,8.1,29.8,12.2,44.8c0.2,0.8,0.5,1.6,0.7,2.6
			c1.1,0,2.1,0,3.2,0c63.7,0,127.5,0,191.2,0c3.7,0,6.5,1,8.1,4.4c0,1.2,0,2.3,0,3.5c-1.6,5.7-3.4,11.4-4.9,17.1
			c-7.1,26.2-14.1,52.4-21.1,78.6c-3.2,12-12,18.7-24.3,18.7c-37.4,0-74.9,0-112.3,0c-2.1,0-4.1-0.2-6.5-0.4c1.3,4.7,2.5,9.4,3.9,14
			c0.1,0.4,0.8,0.7,1.3,0.8c0.7,0.1,1.5,0.1,2.2,0.1c37.3,0,74.7,0,112,0c16.1,0,28.8,13.5,27.8,29.3c-0.7,11.2-8.2,20.9-18.8,24.3
			c-10.8,3.5-22.5,0.1-29.7-8.5c-7.2-8.6-8.3-20.8-2.8-30.7c0.4-0.7,0.8-1.4,1.2-2.3c-23.2,0-46.1,0-69.3,0
			c2.6,4.4,4.2,8.9,4.7,13.8c1.3,14.7-10.3,27.8-25.8,29.1c-14.2,1.1-27.7-10.4-28.8-24.5c-0.8-11.2,3.4-19.9,12.8-26
			c1.6-1,1.3-1.9,0.9-3.3c-8.8-31.9-17.5-63.8-26.3-95.7c-3-10.8-6-21.5-8.8-32.3C38,53.2,33.7,36.8,29.4,20.4
			c-0.2-0.8-0.5-1.6-0.7-2.5c-9.6,0-19.1,0-28.7,0C0,13.9,0,9.9,0,6z M55.4,71.8c0.2,0.9,0.3,1.6,0.5,2.2c8,29,16,58,24,87
			c1.8,6.5,5.9,9.6,12.7,9.6c37.1,0,74.2,0,111.3,0c7.9,0,11.7-2.9,13.7-10.5c7.1-26.5,14.2-53.1,21.2-79.6c0.8-2.8,1.5-5.7,2.3-8.7
			C179.1,71.8,117.4,71.8,55.4,71.8z M205.6,239.7c8.8,0,15.9-7,15.9-15.7c0-8.6-7.1-15.6-15.7-15.7c-8.7,0-15.9,7.1-15.9,15.8
			C189.9,232.7,196.9,239.7,205.6,239.7z M90.9,239.7c8.8,0,15.7-7,15.7-15.8c-0.1-8.6-7.1-15.6-15.7-15.6
			c-8.7,0-15.7,7.1-15.7,15.9C75.2,232.8,82.2,239.7,90.9,239.7z"/>
		<path class="st0" d="M55.4,71.8c62,0,123.7,0,185.7,0c-0.8,3-1.5,5.9-2.3,8.7c-7.1,26.5-14.2,53.1-21.2,79.6
			c-2,7.6-5.8,10.5-13.7,10.5c-37.1,0-74.2,0-111.3,0c-6.8,0-10.9-3.1-12.7-9.6c-8-29-16-58-24-87C55.7,73.3,55.6,72.7,55.4,71.8z"
			/>
		<path class="st0" d="M205.6,239.7c-8.7,0-15.7-7-15.7-15.6c0-8.7,7.1-15.8,15.9-15.8c8.6,0,15.7,7.1,15.7,15.7
			C221.5,232.7,214.4,239.7,205.6,239.7z"/>
		<path class="st0" d="M90.9,239.7c-8.7,0-15.7-6.9-15.7-15.5c-0.1-8.8,6.9-15.9,15.7-15.9c8.6,0,15.7,7,15.7,15.6
			C106.7,232.7,99.7,239.7,90.9,239.7z"/>
	</g>
</g>
<g id="Слой_1__x28_копия_x29_">
	<g>
		<path class="st0" d="M255,67.6c0,63,0,125.9,0,188.9c-85,0-170,0-255,0C0,177,0,97.4,0,17.9c9.5,0,19.1,0,28.7,0
			c0.3,0.9,0.5,1.7,0.7,2.5c4.3,16.4,8.6,32.8,12.9,49.2c2.9,10.8,5.9,21.5,8.8,32.3c8.8,31.9,17.5,63.8,26.3,95.7
			c0.4,1.3,0.6,2.3-0.9,3.3c-9.4,6.1-13.6,14.8-12.8,26c1.1,14.1,14.6,25.7,28.8,24.5c15.5-1.3,27.1-14.4,25.8-29.1
			c-0.4-4.9-2.1-9.4-4.7-13.8c23.2,0,46.1,0,69.3,0c-0.5,0.9-0.9,1.6-1.2,2.3c-5.4,9.9-4.3,22.1,2.8,30.7c7.2,8.7,19,12,29.7,8.5
			c10.5-3.4,18-13.1,18.8-24.3c1.1-15.7-11.7-29.2-27.8-29.3c-37.4,0-74.7,0-112.1,0c-0.8,0-1.5,0.1-2.2-0.1
			c-0.5-0.1-1.2-0.4-1.3-0.8c-1.3-4.6-2.6-9.3-3.9-14c2.4,0.1,4.5,0.4,6.5,0.4c37.4,0,74.9,0,112.3,0c12.4,0,21.1-6.7,24.3-18.7
			c7.1-26.2,14.1-52.4,21.1-78.6C251.6,79,253.4,73.3,255,67.6z"/>
		<path class="st0" d="M0,6c0-1.5,0-3,0-4.5c85,0,170,0,255,0c0,20.9,0,41.8,0,62.6c-1.6-3.5-4.4-4.4-8.1-4.4
			c-63.7,0.1-127.5,0-191.2,0c-1.1,0-2.1,0-3.2,0c-0.3-1-0.5-1.8-0.7-2.6c-4.1-14.9-8.1-29.9-12.2-44.8c-1.4-5.2-2.9-6.3-8.2-6.3
			C20.9,6,10.5,6,0,6z"/>
		<path class="st2" d="M0,6C10.5,6,20.9,6,31.4,6.1c5.4,0,6.8,1.1,8.2,6.3c4.1,14.9,8.1,29.8,12.2,44.8c0.2,0.8,0.5,1.6,0.7,2.6
			c1.1,0,2.1,0,3.2,0c63.7,0,127.5,0,191.2,0c3.7,0,6.5,1,8.1,4.4c0,1.2,0,2.3,0,3.5c-1.6,5.7-3.4,11.4-4.9,17.1
			c-7.1,26.2-14.1,52.4-21.1,78.6c-3.2,12-12,18.7-24.3,18.7c-37.4,0-74.9,0-112.3,0c-2.1,0-4.1-0.2-6.5-0.4c1.3,4.7,2.5,9.4,3.9,14
			c0.1,0.4,0.8,0.7,1.3,0.8c0.7,0.1,1.5,0.1,2.2,0.1c37.3,0,74.7,0,112,0c16.1,0,28.8,13.5,27.8,29.3c-0.7,11.2-8.2,20.9-18.8,24.3
			c-10.8,3.5-22.5,0.1-29.7-8.5c-7.2-8.6-8.3-20.8-2.8-30.7c0.4-0.7,0.8-1.4,1.2-2.3c-23.2,0-46.1,0-69.3,0
			c2.6,4.4,4.2,8.9,4.7,13.8c1.3,14.7-10.3,27.8-25.8,29.1c-14.2,1.1-27.7-10.4-28.8-24.5c-0.8-11.2,3.4-19.9,12.8-26
			c1.6-1,1.3-1.9,0.9-3.3c-8.8-31.9-17.5-63.8-26.3-95.7c-3-10.8-6-21.5-8.8-32.3C38,53.2,33.7,36.8,29.4,20.4
			c-0.2-0.8-0.5-1.6-0.7-2.5c-9.6,0-19.1,0-28.7,0C0,13.9,0,9.9,0,6z M63.9,77.8c0.2,0.8,0.3,1.4,0.4,1.9
			c7.2,25.2,14.4,50.4,21.6,75.7c1.6,5.6,5.3,8.4,11.4,8.4c33.3,0,66.6,0,100,0c7.1,0,10.5-2.5,12.3-9.2
			c6.4-23.1,12.7-46.1,19.1-69.2c0.7-2.5,1.3-5,2-7.6C175,77.8,119.6,77.8,63.9,77.8z M205.5,238.8c8.3,0,15-6.6,15-14.9
			c0-8.1-6.7-14.8-14.8-14.8c-8.3,0-15,6.7-15,14.9C190.7,232.2,197.3,238.8,205.5,238.8z M91.2,238.4c8.1,0,14.4-6.4,14.4-14.5
			c0-7.9-6.5-14.3-14.4-14.3c-8,0-14.4,6.5-14.4,14.5C76.8,232.1,83.2,238.4,91.2,238.4z"/>
		<path class="st0" d="M55.4,71.8c62,0,123.7,0,185.7,0c-0.8,3-1.5,5.9-2.3,8.7c-7.1,26.5-14.2,53.1-21.2,79.6
			c-2,7.6-5.8,10.5-13.7,10.5c-37.1,0-74.2,0-111.3,0c-6.8,0-10.9-3.1-12.7-9.6c-8-29-16-58-24-87C55.7,73.3,55.6,72.7,55.4,71.8z"
			/>
		<path class="st0" d="M205.6,239.7c-8.7,0-15.7-7-15.7-15.6c0-8.7,7.1-15.8,15.9-15.8c8.6,0,15.7,7.1,15.7,15.7
			C221.5,232.7,214.4,239.7,205.6,239.7z"/>
		<path class="st0" d="M90.9,239.7c-8.7,0-15.7-6.9-15.7-15.5c-0.1-8.8,6.9-15.9,15.7-15.9c8.6,0,15.7,7,15.7,15.6
			C106.7,232.7,99.7,239.7,90.9,239.7z"/>
	</g>
</g>
</svg>
