<?xml version="1.0" encoding="utf-8"?>
<!-- Generator: Adobe Illustrator 26.0.1, SVG Export Plug-In . SVG Version: 6.00 Build 0)  -->
<svg version="1.1" id="Слой_1" xmlns="http://www.w3.org/2000/svg" xmlns:xlink="http://www.w3.org/1999/xlink" x="0px" y="0px"
	 viewBox="0 0 26.1 26.1" style="enable-background:new 0 0 26.1 26.1;" xml:space="preserve">
<style type="text/css">
	.st0{fill:#FFFFFF;}
</style>
<path class="st0" d="M25.81,22.9l-5.4-5.4c-0.2-0.2-0.2-0.4-0.1-0.6c1.1-1.7,1.7-3.7,1.7-5.9c0-6.1-4.9-11-11-11s-11,4.9-11,11
	s4.9,11,11,11c2.2,0,4.2-0.6,5.9-1.7c0.2-0.1,0.5-0.1,0.6,0.1l5.4,5.4c0.4,0.4,1,0.4,1.4,0l1.4-1.4
	C26.21,23.9,26.21,23.3,25.81,22.9z M11.11,18c-3.9,0-7-3.1-7-7s3.1-7,7-7s7,3.1,7,7S15.01,18,11.11,18z"/>
</svg>
