<?xml version="1.0" encoding="utf-8"?>
<!-- Generator: Adobe Illustrator 26.0.1, SVG Export Plug-In . SVG Version: 6.00 Build 0)  -->
<svg version="1.1" id="Layer_1" xmlns="http://www.w3.org/2000/svg" xmlns:xlink="http://www.w3.org/1999/xlink" x="0px" y="0px"
	 viewBox="0 0 64 64" style="enable-background:new 0 0 64 64;" xml:space="preserve">
<g>
	<g id="Icon-Trash" transform="translate(232.000000, 228.000000)">
		<polygon id="Fill-6" points="-209.8,-207.9 -205.9,-207.9 -205.9,-176.7 -209.8,-176.7 		"/>
		<polygon id="Fill-7" points="-202,-207.9 -198,-207.9 -198,-176.7 -202,-176.7 		"/>
		<polygon id="Fill-8" points="-194.1,-207.9 -190.2,-207.9 -190.2,-176.7 -194.1,-176.7 		"/>
		<polygon id="Fill-9" points="-225.4,-219.7 -174.6,-219.7 -174.6,-215.8 -225.4,-215.8 		"/>
		<path id="Fill-10" d="M-190.4-217.7h-3.6v-3.9c0-1.2-0.9-2.1-2.1-2.1h-7.8c-1.2,0-2.1,0.9-2.1,2.1v3.9h-3.6v-3.9
			c0-3.1,2.6-5.7,5.7-5.7h7.8c3.1,0,5.7,2.6,5.7,5.7L-190.4-217.7"/>
		<path id="Fill-11" d="M-188.3-165h-23.4c-3.1,0-5.9-2.6-6.1-5.7l-3.6-46.9l3.9-0.3l3.6,46.9c0.1,1.2,1.2,2.1,2.2,2.1h23.4
			c1.2,0,2.2-1,2.2-2.1l3.6-46.9l3.9,0.3l-3.6,46.9C-182.4-167.4-185.2-165-188.3-165"/>
	</g>
</g>
</svg>
