<?xml version="1.0" encoding="utf-8"?>
<!-- Generator: Adobe Illustrator 26.0.1, SVG Export Plug-In . SVG Version: 6.00 Build 0)  -->
<svg version="1.1" xmlns="http://www.w3.org/2000/svg" xmlns:xlink="http://www.w3.org/1999/xlink" x="0px" y="0px"
	 viewBox="0 0 587 114" style="enable-background:new 0 0 587 114;" xml:space="preserve">
<style type="text/css">
	.st0{display:none;}
	.st1{display:inline;fill:#FFDDAB;}
	.st2{font-family:'Shoika-Black';}
	.st3{font-size:137px;}
	.st4{display:inline;fill:#D4EDFF;}
	.st5{font-family:'Shadow-Regular';}
	.st6{font-size:158px;}
	.st7{fill:#FFDCB6;}
	.st8{fill:#FFFFFF;}
</style>
<g id="Слой_1" class="st0">
	
		<text transform="matrix(1 0 0 1 96.8594 -309.0078)" style="display:inline; font-family:'Pribambas-Regular'; font-size:136.9004px;">AIRBOX</text>
	
		<text transform="matrix(1 0 0 1 687.4424 -198.4238)" style="display:inline; font-family:'Pribambas-Regular'; font-size:155.7715px;">AIr</text>
	<text transform="matrix(1 0 0 1 24.8594 -192.0078)" class="st2" style="display:inline; font-size:136.9004px;">AIRBOX</text>
	<text transform="matrix(1 0 0 1 969.8594 -406.0078)" style="display:inline; font-family:'Redemption'; font-size:136.9004px;">AIRBOX</text>
	<text transform="matrix(1 0 0 1 973.8594 -288.0078)" style="display:inline; font-family:'DSGreece'; font-size:136.9004px;">AIRBOX</text>
	<text transform="matrix(1 0 0 1 -1.1406 -406.0078)" class="st5" style="display:inline; font-size:136.9004px;">AIRBOX</text>
	<text transform="matrix(1 0 0 1 981.8594 -182.0078)" style="display:inline; font-family:'FuturaDemiC'; font-size:136.9004px;">AIRBOX</text>
</g>
<g id="Слой_2" class="st0">
	<text transform="matrix(1 0 0 1 259.8594 107.9922)" class="st1 st2 st3">BOX</text>
	<text transform="matrix(1 0 0 1 4.4858 107.7568)" class="st4 st5 st6">AIR</text>
</g>
<g id="Слой_2__x28_копия_x29_">
	<g>
		<path class="st7" d="M269.59,111.99V10.2h47.4c26.12,0,39.18,8.86,39.18,26.58c0,11.51-4.89,19-14.66,22.47
			c12.97,3.84,19.45,12.15,19.45,24.93c0,18.54-13.75,27.81-41.24,27.81H269.59z M299.04,31.57v19.86h13.97c4.47,0,7.74-0.8,9.8-2.4
			c2.05-1.6,3.08-4.09,3.08-7.47c0-6.67-4.29-10-12.88-10H299.04z M317.81,90.76c8.58,0,12.88-3.29,12.88-9.87
			c0-3.56-1.07-6.16-3.22-7.81c-2.15-1.64-5.55-2.47-10.21-2.47h-18.22v20.14H317.81z"/>
		<path class="st7" d="M384.94,23.63c10.23-9.77,23.24-14.66,39.05-14.66c15.71,0,28.68,4.91,38.91,14.73
			c10.23,9.82,15.34,22.31,15.34,37.47c0,15.07-5.12,27.49-15.34,37.26c-10.23,9.86-23.2,14.79-38.91,14.79
			c-15.71,0-28.7-4.91-38.98-14.73c-10.28-9.82-15.41-22.26-15.41-37.33C369.59,46.01,374.71,33.49,384.94,23.63z M399.73,61.17
			c0,7.49,2.24,13.59,6.71,18.29c4.47,4.71,10.32,7.05,17.54,7.05c7.12,0,12.92-2.35,17.4-7.05c4.47-4.7,6.71-10.8,6.71-18.29
			c0-7.58-2.24-13.75-6.71-18.5c-4.48-4.75-10.28-7.12-17.4-7.12c-7.22,0-13.06,2.38-17.54,7.12
			C401.97,47.42,399.73,53.59,399.73,61.17z"/>
		<path class="st7" d="M513.86,58.7l-33.43-48.5h33.7l16.85,26.58l16.44-26.58h32.19l-33.43,47.4l36.99,54.39h-34.39l-18.63-31.78
			l-18.36,31.78h-34.11L513.86,58.7z"/>
	</g>
	<g>
		<path class="st8" d="M73.37,9.95c1.9-0.1,3.13,0.05,3.71,0.47c0.58,0.42,1.08,1.53,1.5,3.32c0.84,3.48,1.6,6.85,2.29,10.11
			c0.68,3.27,1.45,6.64,2.29,10.11c1.79,7.58,3.58,15.06,5.37,22.44c1.79,7.37,3.58,14.8,5.37,22.28c0.84,3.37,1.66,6.77,2.45,10.19
			c0.79,3.42,1.6,6.82,2.45,10.19c0.32,1.37,0.63,2.71,0.95,4.03c0.32,1.32,0.63,2.61,0.95,3.87c0.63,2.42-0.21,3.84-2.53,4.27
			h-1.11c-3.79,0.21-7.58,0.24-11.38,0.08s-7.53-0.13-11.22,0.08c-1.58,0-2.56-0.26-2.92-0.79c-0.37-0.53-0.66-1.68-0.87-3.48
			c-0.32-4.63-1.16-9.27-2.53-13.9c-0.21-1.05-0.66-1.63-1.34-1.74c-0.69-0.1-1.29-0.16-1.82-0.16c-3.79-0.1-7.58-0.1-11.38,0
			c-3.79,0.11-7.53,0.21-11.22,0.32c-0.84,0-1.48,0.21-1.9,0.63c-0.42,0.42-0.74,1-0.95,1.74c-0.63,2.42-1.29,4.69-1.98,6.79
			c-0.69,2.11-1.34,4.37-1.98,6.79c-0.32,1.16-0.71,1.98-1.19,2.45s-1.45,0.71-2.92,0.71c-0.74,0-2.37,0-4.9,0c-2.53,0-5.16,0-7.9,0
			c-2.74,0-5.24-0.02-7.51-0.08c-2.27-0.05-3.45-0.08-3.55-0.08c-2.53-0.21-3.37-1.53-2.53-3.95c1.05-3.26,2.11-6.42,3.16-9.48
			c1.05-3.05,2.16-6.16,3.32-9.32c2.21-7.06,4.42-14.09,6.64-21.09c2.21-7,4.48-14.04,6.79-21.09c0.74-2.42,1.63-5.37,2.69-8.85
			c1.05-3.48,2.08-6.85,3.08-10.11c1-3.26,1.87-6.06,2.61-8.37c0.74-2.32,1.16-3.58,1.26-3.79c0.32-1.05,0.55-1.9,0.71-2.53
			c0.16-0.63,0.42-1.11,0.79-1.42c0.37-0.32,0.95-0.53,1.74-0.63c0.79-0.1,1.92-0.16,3.4-0.16c1.26,0,3.4,0.03,6.4,0.08
			c3,0.05,6.16,0.08,9.48,0.08c3.32,0,6.5,0,9.56,0C69.79,9.95,72,9.95,73.37,9.95z M61.52,72.36c1.68-0.1,2.32-1,1.9-2.69
			c-0.84-3.69-1.71-7.43-2.61-11.22c-0.9-3.79-1.77-7.53-2.61-11.22c-0.11-0.32-0.26-0.66-0.47-1.03c-0.21-0.37-0.53-0.55-0.95-0.55
			c-0.42,0-0.66,0.16-0.71,0.47c-0.05,0.32-0.13,0.58-0.24,0.79c-1.16,3.37-2.32,6.77-3.48,10.19c-1.16,3.42-2.32,6.82-3.48,10.19
			c-0.53,1.58-0.9,2.77-1.11,3.56c-0.21,0.79-0.19,1.34,0.08,1.66c0.26,0.32,0.79,0.47,1.58,0.47s1.92,0,3.4,0
			c1.37-0.1,2.5-0.18,3.4-0.24c0.89-0.05,1.84-0.1,2.84-0.16C60.07,72.55,60.89,72.47,61.52,72.36z"/>
		<path class="st8" d="M147.63,71.57v35.71c0,1.69-0.24,2.71-0.71,3.08c-0.47,0.37-1.61,0.45-3.4,0.24
			c-3.48-0.42-6.95-0.5-10.43-0.24c-3.48,0.26-7.11,0.34-10.9,0.24c-3.27,0.53-4.9-0.84-4.9-4.11c-0.11-1.9-0.13-3.69-0.08-5.37
			c0.05-1.68,0.08-3.53,0.08-5.53c0.1-4.74,0.16-9.48,0.16-14.22c0-4.74,0-9.48,0-14.22c0-7.16-0.03-14.75-0.08-22.75
			c-0.05-8-0.13-15.59-0.24-22.75c0-1.26,0.02-2.53,0.08-3.79c0.05-1.26,0.13-2.53,0.24-3.79c0.21-1.47,0.5-2.39,0.87-2.76
			c0.37-0.37,1.24-0.66,2.61-0.87c4-0.42,7.9-0.6,11.69-0.55c3.79,0.05,7.64,0.34,11.53,0.87c1.16,0.11,2.11,0.21,2.84,0.32
			c0.74,0.11,1.16,0.74,1.26,1.9c0.21,1.05,0.29,2.37,0.24,3.95c-0.05,1.58-0.08,2.9-0.08,3.95c-0.11,6.95-0.21,14.77-0.32,23.46
			C148,53.01,147.84,62.09,147.63,71.57z"/>
		<path class="st8" d="M201.35,9.95c5.69,0.21,11.35,0.53,16.98,0.95c5.63,0.42,11.19,1.74,16.67,3.95
			c2.74,1.16,5.21,2.56,7.43,4.19c2.21,1.63,4.11,3.66,5.69,6.08c2.42,3.58,4.11,7.35,5.06,11.3c0.95,3.95,1.26,7.85,0.95,11.69
			c-0.32,3.85-1.16,7.53-2.53,11.06c-1.37,3.53-3.16,6.71-5.37,9.56c-1.05,1.26-2.35,2.4-3.87,3.4c-1.53,1-3.03,1.97-4.5,2.92
			c-0.84,0.53-1.34,1.05-1.5,1.58c-0.16,0.53,0.02,1.21,0.55,2.05c1.79,3.06,3.61,6.08,5.45,9.08c1.84,3,3.71,6.03,5.61,9.08
			c0.74,1.16,1.63,2.74,2.69,4.74c1.05,2,2,3.58,2.84,4.74c0.74,1.26,0.84,2.53,0.32,3.79c-0.32,0.84-0.77,1.32-1.34,1.42
			c-0.58,0.1-1.24,0.16-1.98,0.16c-3.37-0.21-6.69-0.26-9.95-0.16c-3.27,0.1-6.58,0.16-9.95,0.16c-1.16,0-2-0.21-2.53-0.63
			c-0.53-0.42-1.05-1.05-1.58-1.9c-2-3.69-4.19-7.82-6.56-12.4s-4.61-8.71-6.71-12.4c-0.42-0.74-0.84-1.42-1.26-2.05
			c-0.42-0.63-0.84-1.26-1.26-1.9c-0.84-1.58-2.27-2.37-4.27-2.37c-1.16,0-2.24-0.08-3.24-0.24c-1-0.16-2.08-0.24-3.24-0.24
			c-1.69-0.1-2.82,0.08-3.4,0.55c-0.58,0.47-0.87,1.61-0.87,3.4c0.1,4.11,0.21,8.22,0.32,12.32c0.1,4.11,0.21,8.22,0.32,12.32
			c0.1,1.48-0.05,2.53-0.48,3.16c-0.42,0.63-1.32,1.11-2.7,1.42c-0.53,0.21-1.11,0.32-1.75,0.32c-0.64,0-1.22,0-1.75,0
			c-2.75,0-5.43,0.02-8.02,0.08c-2.59,0.05-5.27,0.08-8.02,0.08c-0.85,0-1.64-0.03-2.38-0.08c-0.74-0.05-1.54-0.13-2.38-0.24
			c-1.8-0.21-2.86-1.21-3.18-3c-0.11-0.84-0.24-1.71-0.4-2.61c-0.16-0.89-0.24-1.76-0.24-2.61c0.1-4.21,0.99-8.48,0.99-12.7
			c0-4.21,0.79-9.79,1-14c0.1-4,0-7.15,0-11c0-3.84,0-8,0-12c0.1-6.42-1.25-11.95-1.36-18.32C165.54,28.31,166,26.43,166,20
			c0-2.32,1.36-6.42,2-7c0.63-0.58,5.56-3.1,8-3l8.39,0.43c2.43-0.1,4.55-0.21,6.35-0.32c1.8-0.1,3.65-0.18,5.55-0.24
			C198.19,9.82,199.87,9.85,201.35,9.95z M195.98,45.43c0,0.05,0,0.1-0.01,0.15c-0.1,1.45-0.15,2.85-0.15,4.19v6.48
			c0,1.79,0.95,2.69,2.84,2.69c2.11-0.21,4.19-0.34,6.24-0.39c2.05-0.05,4.13-0.18,6.24-0.4c2.11-0.32,4.13-0.89,6.08-1.74
			c1.95-0.84,3.71-2.11,5.29-3.79c1.16-1.26,1.92-2.79,2.29-4.58c0.37-1.79,0.37-3.56,0-5.29c-0.37-1.74-1.08-3.26-2.13-4.58
			c-1.05-1.32-2.37-2.19-3.95-2.61c-6.88-1.72-13.62-2.47-20.21-2.24c-0.71,0.02-1.39,0.33-1.82,0.89c0,0-0.01,0.01-0.01,0.01
			c-0.37,0.47-0.55,0.87-0.55,1.18c-0.11,1.48-0.16,3.16-0.16,5.06V45.43z"/>
	</g>
</g>
</svg>
