<?xml version="1.0" encoding="utf-8"?>
<!-- Generator: Adobe Illustrator 26.0.1, SVG Export Plug-In . SVG Version: 6.00 Build 0)  -->
<svg version="1.1" id="Layer_1" xmlns="http://www.w3.org/2000/svg" xmlns:xlink="http://www.w3.org/1999/xlink" x="0px" y="0px"
	 viewBox="0 0 512 512" style="enable-background:new 0 0 512 512;" xml:space="preserve">
<style type="text/css">
	.st0{fill:#FFFFFF;}
</style>
<g>
	<path class="st0" d="M250.1,0C211.3,0,115.5,4.1,64.5,53c-36.7,34.7-51,87.7-53,151C7.4,304,29.8,367.2,66.6,399.8
		c8.2,6.1,28.6,22.5,67.3,34.7v51c0,0,0,20.4,12.2,24.5c2,0,4.1,2,6.1,2c12.2,0,22.4-14.3,36.7-28.6c12.2-14.3,22.5-24.5,28.6-34.7
		H246h16.3c38.8,0,134.6-4.1,185.6-53c36.7-36.7,51-89.8,51-157.1c2-10.2,2-22.4,2-34.7c-2-75.5-24.5-126.5-55.1-155
		C433.7,38.8,380.7,0,266.4,0H250.1z M246,38.8h14.3h2.1h2c108.1,0,148.9,34.7,153,38.8c24.5,20.4,38.8,65.3,40.8,124.4v8.2
		c2,12.2,2,22.4,2,28.5c-2,61.2-14.3,102-38.8,128.5c-42.8,38.7-132.5,40.8-157,40.8h-14.3h-2h-2h-20.4L193,444.7l-20.4,22.4
		l-4.1,6.1c-4.1,4.1-10.2,12.3-14.3,14.3v-4.1v-87.7c-40.8-10.2-57.1-24.5-61.2-28.6C64.5,342.7,48.2,283.5,52.3,204v-20.4
		c4.1-49,16.3-81.6,36.7-104C131.8,40.8,221.6,38.8,246,38.8z M244,83.6c-10.2,0-10.2,14.3,0,14.3c75.5,0,140.8,51,140.8,146.9
		c0,10.2,14.3,10.2,14.3,0C399,140.7,329.7,81.6,244,83.6z M163.2,102.5c-4.3-0.5-8.9,0.5-13,3.5c-20.4,10.2-40.8,30.6-34.7,53.1
		c0,0,4.1,18.3,26.5,57.1c12.2,18.4,22.4,34.7,32.6,46.9c10.2,14.3,26.5,30.6,42.8,42.8c32.6,26.5,83.7,53,106.1,59.2
		c20.4,6.1,42.8-14.3,53-34.7c4.1-8.2,2-18.3-6.1-24.5c-12.2-12.2-32.6-26.5-46.9-34.7c-10.2-6.1-22.5-2.1-26.5,4.1l-10.2,12.2
		c-4.1,6.1-14.3,6.1-14.3,6.1c-67.3-18.4-85.7-87.7-85.7-87.7s0-8.1,6.1-14.3l12.2-10.2c6.1-4.1,10.2-16.3,4.1-26.5
		c-4.1-6.1-10.2-18.3-16.3-24.5c-6.1-8.2-18.4-22.4-18.4-22.4C171.6,105.1,167.5,103,163.2,102.5z M258.3,124.4
		c-10.2-2-12.2,14.3-2,14.3c57.1,4.1,89.8,42.8,87.7,91.8c-2,10.2,14.3,10.2,14.3,0C360.3,173.4,323.6,126.5,258.3,124.4z
		 M264.4,163.2c-10.2-2-10.2,14.3,0,14.3c24.5,0,36.7,14.3,36.7,38.8c2,10.2,16.3,10.2,16.3,0C315.4,183.6,297,163.2,264.4,163.2z"
		/>
</g>
</svg>
